# xmcd
#
# Track frame offsets: 
#        150
#        12708
#        21896
#        31763
#        45287
#        58668
#        68829
#        79473
#        91023
#        100288
#        112787
#        124183
#        136296
#        147281
#        159456
#        172979
#
# Disc length: 2484 seconds
#
# Revision: 3
# Processed by: cddbd v1.5.2PL0 Copyright (c) Steve Scherf et al.
# Submitted via: ExactAudioCopy v1.3
#
DISCID=ca09b210
DTITLE=Loretta Lynn - Loretta Lynn Country's Favorite Daughter
DYEAR=1993
DGENRE=Country
TTITLE0=Crazy
TTITLE1=Wine, Women and Song
TTITLE2=You Ain't Woman Enough to Take My Man
TTITLE3=Coal Miner's Daughter
TTITLE4=Release Me (And let me love again)
TTITLE5=Beautiful, Unhappy Home
TTITLE6=Fool #1
TTITLE7=I Don't Wanna Play House
TTITLE8=Your Squaw is On the Warpath
TTITLE9=Behind Closed Doors
TTITLE10=Satin Sheets
TTITLE11=Married Ladies
TTITLE12=You're Gonna Catch Heaven
TTITLE13=It'll Be Open Season on You
TTITLE14=Bye Bye, Love
TTITLE15=Feelings
EXTD=
EXTT0=
EXTT1=
EXTT2=
EXTT3=
EXTT4=
EXTT5=
EXTT6=
EXTT7=
EXTT8=
EXTT9=
EXTT10=
EXTT11=
EXTT12=
EXTT13=
EXTT14=
EXTT15=
PLAYORDER=
